<?xml version="1.0" encoding="UTF-8"?>
<svg xmlns="http://www.w3.org/2000/svg" viewBox="0 0 216 216">
  <style>
    path { fill: #1A1A18; stroke: #1A1A18; }
    @media (prefers-color-scheme: dark) {
      path { fill: #F1EFE8; stroke: #F1EFE8; }
    }
  </style>
  <path stroke-width="6" stroke-miterlimit="10" stroke-linejoin="round" d="M89.88,170.867h-40.113c-2.562,0-4.639-2.077-4.639-4.639V52.183c0-2.562,2.077-4.639,4.639-4.639h31.785c1.543,0,2.985.767,3.847,2.047l76.859,114.044c2.077,3.082-.131,7.232-3.847,7.232h-42.62c-1.543,0-2.985-.767-3.847-2.047l-38.286-56.809c-1.127-1.672-1.045-3.88.203-5.464l46.993-59.646c.88-1.117,2.223-1.768,3.644-1.768h41.727c3.898,0,6.058,4.516,3.612,7.551l-29.343,36.402"/>
</svg>
